<?xml version="1.0" standalone="no"?>
<!DOCTYPE svg PUBLIC "-//W3C//DTD SVG 20010904//EN"
 "http://www.w3.org/TR/2001/REC-SVG-20010904/DTD/svg10.dtd">
<svg version="1.0" xmlns="http://www.w3.org/2000/svg"
 width="512.000000pt" height="512.000000pt" viewBox="0 0 512.000000 512.000000"
 preserveAspectRatio="xMidYMid meet">
<g transform="translate(0.000000,512.000000) scale(0.100000,-0.100000)"
fill="#000000" stroke="none">
<path d="M2910 4590 c-326 -67 -579 -325 -641 -653 -6 -34 -12 -171 -13 -307
l-2 -245 -51 2 c-180 7 -352 180 -365 367 l-2 36 -205 -2 -205 -3 3 -55 c1
-30 11 -91 22 -135 83 -339 373 -589 721 -621 40 -3 75 -8 78 -11 3 -3 5 -186
5 -409 0 -352 -2 -404 -15 -405 -8 0 -114 0 -235 -1 -312 0 -407 -18 -564
-104 -191 -104 -322 -270 -393 -496 -20 -63 -23 -93 -22 -218 0 -154 9 -201
57 -316 29 -67 64 -131 84 -152 7 -7 13 -17 13 -20 0 -14 116 -129 171 -170
71 -54 204 -115 299 -138 125 -30 305 -24 427 15 225 72 413 238 506 447 57
129 70 215 71 489 l2 250 343 2 c188 1 374 7 412 13 347 53 623 328 679 674 5
33 10 77 10 97 l0 35 -199 0 c-110 -1 -202 -3 -204 -6 -3 -3 -8 -23 -10 -45
-11 -90 -49 -165 -117 -235 -52 -53 -146 -104 -210 -114 -44 -8 -692 -7 -699
0 -3 3 -6 187 -6 410 0 353 2 404 15 405 8 0 116 0 240 1 243 0 333 11 446 51
420 152 640 631 483 1053 -101 269 -340 468 -624 520 -79 14 -220 11 -305 -6z
m272 -405 c133 -40 238 -143 279 -274 69 -226 -60 -455 -292 -516 -31 -9 -122
-12 -275 -11 l-229 1 0 215 c-1 254 4 289 50 379 48 96 150 177 255 204 55 14
167 15 212 2z m-937 -2662 c1 -128 -4 -236 -11 -271 -40 -198 -215 -337 -412
-327 -112 5 -199 43 -278 123 -155 157 -152 411 7 570 103 103 169 120 469
118 l225 -1 0 -212z"/>
</g>
</svg>
