<svg xmlns="http://www.w3.org/2000/svg" xml:space="preserve" style="fill-rule:evenodd;clip-rule:evenodd;stroke-linejoin:round;stroke-miterlimit:2" viewBox="0 0 138 158"><path d="m120.615 24.208 12.135.016-1.102 11.98-2.288-2.482-15.787 13.206-7.59-8.498-22.965 19.32-4.868-16.366-9.255 29.754H16.95L0 58.853h59.183L78.15 0l12.308 37.58 16.755-14.013 8.22 9.557 7.56-6.403-2.378-2.513ZM18.29 73.103 35.18 85.348h85.215l16.67-12.245H18.29Zm18.17 14.165 11.561 8.38-1.318 3.908h62.674l-1.346-4.135 11.098-8.152H36.46Zm9.93 14.25-3.949 12.246H113.6l-3.912-12.246H46.389Zm-4.26 14.208-3.95 12.246h28.24l11.646-8.558 11.802 8.558h27.953l-3.912-12.246h-71.78Zm-4.262 14.207-3.961 12.289h14.462l16.729-12.29h-27.23Zm53.34 0 16.948 12.289h13.9l-3.925-12.29H91.208Zm-57.6 14.209-4.188 12.991 17.862-12.991H33.608Zm75.833 0 16.807 12.186-3.89-12.186H109.44h.001Z"/></svg>