<svg xmlns="http://www.w3.org/2000/svg" xml:space="preserve" style="fill-rule:evenodd;clip-rule:evenodd;stroke-linejoin:round;stroke-miterlimit:2" viewBox="0 0 272 292"><path d="m337.508 70.435-.001.001.001.001v-.002Zm0 .002v.047l-.049.099-.099.146-.097.197-.147.294-.196.294-.245.391-.244.392-.294.489-.343.49-.393.538-.391.637-.441.588-.489.686-.49.686-.539.734-.588.784-.637.784-.636.784-.686.833-.735.832-.734.882-.785.882-.832.931-.882.882-.882.93-.931.931-1.958 1.862-1.028.931-1.077.882-1.127.93c-8.571 7.004-106.624 67.196-111.419 71.017-4.848 3.771-13.665 13.91-20.864 43.786-5.828 24.097-9.6 15.084-28.847 14.349-11.265-.44-42.512-8.668-40.112 15.478 0 0 3.869-5.388 46.528.343 16.799 2.302 30.512-3.184 34.479-15.821 3.967-12.831 9.747-34.626 18.416-46.087 4.016-5.29 82.576-53.581 104.226-66.461 7.885-4.653 33.253-19.983 15.575-37.37l-.007-.002Zm17.982 25.512c-.019-.005.024.045.068.096l.022-.042a.551.551 0 0 0-.09-.054Zm.068.096-.37.74-.44.784-.441.833-.441.881-.49.931-.245.441-.294.489-.294.49-.293.49-.342.49-.344.489-.343.539-.391.489-.441.54-.391.539-.49.489-.49.588-1.078 1.078-.588.538-.588.588-.685.539-.686.588-.735.588-.734.588-.833.539-.833.588c-17.534 11.754-85.268 53.777-100.892 63.131-8.816 5.241-15.869 15.134-18.024 19.591-2.4 4.947-5.975 17.24-7.591 38.349-.294 4.065-10.971 10.775-9.649 13.763 1.273 2.89 9.405 1.469 9.11 3.722-.294 1.959-2.694 4.946-2.694 6.856 0 2.253 4.799.196 3.624 2.645-2.009 4.016 1.176 4.898 2.351 7.934 1.224 2.988-.392 6.416.686 8.963 1.959 4.408 8.913 5.24 20.03 4.995 11.168-.196 16.212 7.494 13.763 14.351-3.183 9.06-10.628 8.913-22.186 16.701-11.608 7.738-12.098 17.583-5.339 25.958 5.143 6.367 24.489 9.453 36.635-2.89 2.498-2.792-5.486.98-17.093-5.094 0 0-7.543-5.436-3.527-12.733 3.967-7.347 10.432-10.531 17.583-14.694 7.102-4.212 16.456-6.514 16.016-15.526-.441-8.962-9.795-10.235-13.566-10.48-3.821-.196-9.698.146-14.939-.098-7.934-.392-10.333-4.164-10.823-19.297-.147-4.849-6.955-2.253-3.183-8.669 2.008-3.331-3.772-2.007-7.69-3.673-3.331-1.518 3.869-8.522 8.865-15.183 1.567-2.106-.882-4.799 0-14.741.833-8.669 4.849-19.983 16.456-27.917 5.682-3.87 30.463-19.298 37.663-23.412 10.089-5.828 58.919-37.419 67.294-43.737 14.618-11.042 1.329-23.647.419-24.691h.001Zm-12.759 49.522-.048.049-.097.097-.099.049-.098.098-.097.099-.148.097-.294.245-.343.343-.44.343-.44.391-.539.441-.54.44-1.273 1.078-.685.539-.736.588-.734.637-.784.637-.832.637-.833.686-.882.686-.833.685-1.812 1.371-1.861 1.371-1.812 1.371-1.862 1.273-.88.637-.931.588-.882.588-.833.588c-9.649 6.024-52.944 29.044-62.544 36.978-9.648 7.935-9.257 14.692-9.257 14.692l-1.566 19.641s-6.024 6.073-6.808 8.326c-.783 2.253 4.016 2.645 7.591 4.506 3.625 1.91-.685 3.624.784 5.338 2.841 3.183 5.044.588 3.134 6.024-.294.833 2.4 3.38 2.106 4.8-.49 2.253-1.714 3.771.392 5.779 2.4 2.253 10.138 6.074 27.868 2.45 19.247-3.967 31.883 11.019 41.483 13.566 3.281.833 14.155 4.261 31.297-9.061 7.395-5.73-4.556-.539-21.697-7.739-18.269-7.64-23.754-8.13-36.047-5.828-10.53 1.959-18.317 3.674-22.431 2.449-3.527-1.078-.588-6.318-3.232-7.2-5.29-1.763-1.666-4.309-4.8-6.023-3.183-1.763-1.322-2.45-1.419-5.975-.049-2.449-2.744-1.764-6.613-3.919-2.988-1.714 4.114-4.848 5.142-7.347 1.175-3.085-.294-7.395.49-13.713 1.419-11.119 18.023-18.905 26.839-23.803 9.649-5.24 37.174-22.039 43.687-26.398 15.232-10.187 7.249-24.195 7.249-24.195Zm-235.821 92.861c-10.153.116-17.416 4.646-15.916 13.615l.195-.098.099-.097.195-.099.196-.146.294-.148.294-.097.343-.147.391-.196.441-.147.489-.147.49-.098.588-.147.637-.098.637-.098.734-.098.784-.049.833-.049h.833l.93.049.98.049 1.029.098.538.098.588.098.539.049.588.147.588.098.588.098.637.147.636.196.638.147.686.196.636.195.735.196.686.246.735.244.734.245.735.294.783.245.785.343c16.798 6.807 61.171 26.838 72.928 35.459 7.199 5.29 27.28 14.351 21.648 24.195-5.633 9.796-32.864 14.35-27.28 35.459 5.632 21.158 35.311 12.099 39.327 6.809 3.967-5.29-13.223 3.085-19.247-12.049-4.8-12.097 3.575-20.129 15.232-27.965 5.583-3.771 13.174-6.808 11.998-16.603-.786-6.808-12.785-12.098-24.834-18.857-12.048-6.808-58.527-28.701-76.988-37.027-6.906-3.104-14.039-4.623-20.131-4.554l-.004-.001Z" style="fill-rule:nonzero" transform="translate(-90.865 -70.435)"/></svg>