<?xml version="1.0" encoding="UTF-8" standalone="no"?><!DOCTYPE svg PUBLIC "-//W3C//DTD SVG 1.1//EN" "http://www.w3.org/Graphics/SVG/1.1/DTD/svg11.dtd"><svg width="100%" height="100%" viewBox="0 0 1125 432" version="1.1" xmlns="http://www.w3.org/2000/svg" xmlns:xlink="http://www.w3.org/1999/xlink" xml:space="preserve" xmlns:serif="http://www.serif.com/" style="fill-rule:evenodd;clip-rule:evenodd;stroke-linejoin:round;stroke-miterlimit:2;"><path d="M715.232,18.443c51.677,-0.626 100.017,-7.279 141.632,-18.443c-3.076,10.541 -4.713,21.599 -4.713,32.997c0,10.27 1.329,20.263 3.842,29.852c-11.851,-2.788 -24.29,-4.272 -37.113,-4.272c-28.5,0 -55.102,7.333 -77.574,20.005l0,186.021c19.734,-9.186 39.71,-17.763 59.686,-25.13c-0.001,-20.912 0.096,-43.448 0.389,-70.917c1.282,-61.019 73.502,-85.267 123.192,-85.252c48.967,0.268 118.03,26.523 118.66,85.503l0.001,58.05c21.436,-3.773 39.779,-15.25 57.565,-27.123c-1.376,10.339 -2.661,12.4 -9.006,21.08c16.675,-8.584 19.956,-11.48 33.207,-25.366c-1.218,12.099 -3.05,24.356 -7.331,35.738c-11.53,30.658 -43.056,48.242 -74.435,47.757l0.001,91.411l-69.366,0l-0.001,-104.149c-32.877,-7.483 -70.452,-13.375 -103.123,-2.69l0,106.839l-69.367,0c0,-33.799 -0.148,-60.128 -0.261,-85.155c-120.912,48.925 -241.797,146.587 -309.466,146.587c-90.282,0 -136.469,-47.483 -244.883,-47.483c-61.734,0 -86.126,24.956 -135.83,34.819l-0.093,0.117l-0.502,0c-37.538,7.327 -110.343,0 -110.343,0c0,0 241.424,-304.016 241.424,-304.016l-173.713,0l0,-71.152l341.061,0l-231.702,291.773c23.52,-6.376 47.251,-10.397 69.698,-10.397c108.414,0 154.601,47.483 244.883,47.483c43.322,0 108.455,-36.455 181.443,-74.38l0,-219.968c-22.472,-12.672 -49.073,-20.005 -77.574,-20.005c-12.823,0 -25.262,1.484 -37.113,4.272c2.513,-9.589 3.842,-19.582 3.842,-29.852c0,-11.398 -1.637,-22.456 -4.712,-32.997c41.614,11.164 89.954,17.817 141.631,18.443l16.064,0Zm-239.083,64.861c80.461,0 145.786,58.451 145.786,130.446c0,71.995 -65.325,130.446 -145.786,130.446c-80.462,0 -145.787,-58.451 -145.787,-130.446c0,-71.995 65.325,-130.446 145.787,-130.446Zm566.873,199.541l0.013,-3.905l-0.013,0l0,3.905Zm-566.038,-137.885c42.353,0 76.739,30.885 76.739,68.927c0,38.042 -34.386,68.927 -76.739,68.927c-42.353,0 -76.739,-30.885 -76.739,-68.927c0,-38.042 34.386,-68.927 76.739,-68.927Zm566.037,81.934l0.157,-0.027c0.039,-25.643 0.014,-7.441 -0.157,-33.083l0,33.11Zm-69.154,-3.978l-0.001,-54.089c-0.239,-10.251 -8.796,-18.485 -16.963,-23.277c-17.645,-10.351 -40.816,-12.158 -59.911,-4.597c-11.234,4.448 -25.752,13.677 -26.242,27.65l-0.005,0.224l0,56.605c11.763,-2.998 21.448,-6.65 33.557,-8.226c23.079,-3.004 47.062,1.759 69.565,5.71Z" style="fill:#fff;"/></svg>