<?xml version="1.0" encoding="UTF-8" standalone="no"?><!DOCTYPE svg PUBLIC "-//W3C//DTD SVG 1.1//EN" "http://www.w3.org/Graphics/SVG/1.1/DTD/svg11.dtd"><svg width="100%" height="100%" viewBox="0 0 439 210" version="1.1" xmlns="http://www.w3.org/2000/svg" xmlns:xlink="http://www.w3.org/1999/xlink" xml:space="preserve" xmlns:serif="http://www.serif.com/" style="fill-rule:evenodd;clip-rule:evenodd;stroke-linejoin:round;stroke-miterlimit:2;"><path d="M41,203.15c1.168,0.84 2.447,1.513 3.8,2l-1.8,3.5c-0.73,-0.224 -1.434,-0.526 -2.1,-0.9c-0.15,-0.08 -1.21,-0.8 -3.16,-2.15c-1.613,0.693 -3.355,1.034 -5.11,1c-3.607,0 -6.433,-1.097 -8.48,-3.29c-2.047,-2.193 -3.07,-5.27 -3.07,-9.23c0,-3.953 1.023,-7.03 3.07,-9.23c2.181,-2.244 5.225,-3.443 8.35,-3.29c3.104,-0.15 6.125,1.051 8.28,3.29c2.04,2.2 3.06,5.277 3.06,9.23c0.034,1.874 -0.25,3.741 -0.84,5.52c-0.451,1.292 -1.129,2.494 -2,3.55Zm-3.81,-2.75c0.638,-0.789 1.104,-1.701 1.37,-2.68c0.319,-1.173 0.474,-2.384 0.46,-3.6c0,-2.8 -0.6,-4.89 -1.8,-6.27c-1.165,-1.368 -2.894,-2.131 -4.69,-2.07c-1.801,-0.06 -3.533,0.707 -4.7,2.08c-1.2,1.39 -1.81,3.47 -1.81,6.26c0,2.79 0.61,4.95 1.81,6.35c1.116,1.363 2.798,2.142 4.56,2.11c0.659,0.002 1.313,-0.117 1.93,-0.35c-0.909,-0.627 -1.894,-1.138 -2.93,-1.52l1.33,-2.79c1.601,0.581 3.097,1.419 4.43,2.48l0.04,0Z" style="fill:#fff;fill-rule:nonzero;"/><path d="M47.55,182l4.74,0l0,13.12c-0.038,1.336 0.022,2.673 0.18,4c0.172,0.948 0.689,1.799 1.45,2.39c0.911,0.645 2.015,0.962 3.13,0.9c1.068,0.072 2.129,-0.228 3,-0.85c0.659,-0.517 1.102,-1.263 1.24,-2.09c0.171,-1.363 0.241,-2.737 0.21,-4.11l0,-13.36l4.74,0l0,12.72c0.062,2.061 -0.069,4.123 -0.39,6.16c-0.223,1.098 -0.707,2.127 -1.41,3c-0.747,0.882 -1.698,1.569 -2.77,2c-1.443,0.543 -2.979,0.794 -4.52,0.74c-1.737,0.084 -3.473,-0.188 -5.1,-0.8c-1.066,-0.469 -2.008,-1.182 -2.75,-2.08c-0.621,-0.785 -1.065,-1.696 -1.3,-2.67c-0.362,-2.026 -0.516,-4.083 -0.46,-6.14l0.01,-12.93Z" style="fill:#fff;fill-rule:nonzero;"/><path d="M92.46,206.23l-5.16,0l-2,-5.5l-9.44,0l-1.94,5.5l-5,0l9.08,-24.23l5,0l9.46,24.23Zm-8.74,-9.58l-3.23,-9l-3.17,9l6.4,0Z" style="fill:#fff;fill-rule:nonzero;"/><path d="M95.1,206.23l0,-24l4.74,0l0,19.94l11.79,0l0,4.08l-16.53,-0.02Z" style="fill:#fff;fill-rule:nonzero;"/><path d="M114.87,206.23l0,-24.23l4.74,0l0,24.22l-4.74,0.01Z" style="fill:#fff;fill-rule:nonzero;"/><path d="M129.42,206.23l0,-20.12l-7,0l0,-4.11l18.66,0l0,4.1l-7,0l0,20.12l-4.66,0.01Z" style="fill:#fff;fill-rule:nonzero;"/><path d="M150.34,206.23l0,-10.23l-8.6,-14l5.55,0l5.53,9.58l5.42,-9.58l5.46,0l-8.63,14.06l0,10.16l-4.73,0.01Z" style="fill:#fff;fill-rule:nonzero;"/><path d="M82.1,34.77c-1.3,2.347 -4.073,3.523 -8.32,3.53c-5.54,0 -8.79,0.16 -9.73,0.5c-4.36,1.793 -9.43,3.81 -15.21,6.05c-0.36,8.52 -0.54,17.877 -0.54,28.07c0,20.733 0.667,41.97 2,63.71c0.167,2.154 0.802,4.246 1.86,6.13c1.24,2.52 1.86,4.35 1.86,5.47c-0.02,1.485 -0.59,2.911 -1.6,4c-2.587,3.333 -6.477,5 -11.67,5c-4.503,-0.006 -8.928,-1.192 -12.83,-3.44c-4.067,-2.3 -6.4,-5.02 -7,-8.16c-0.347,-1.68 0.567,-3.583 2.74,-5.71c2.18,-2.13 3.28,-4.14 3.28,-6.05c-0.827,-22.3 -1.24,-41.8 -1.24,-58.5c0,-10.08 0.177,-18.147 0.53,-24.2c-0.12,0 -1.787,0.56 -5,1.68c-1.626,0.706 -3.361,1.128 -5.13,1.25c-1.863,-0.004 -3.668,-0.658 -5.1,-1.85c-2.464,-1.874 -4.827,-3.877 -7.08,-6c-1.737,-1.681 -2.752,-3.974 -2.83,-6.39c0.016,-0.908 0.137,-1.81 0.36,-2.69c0.353,-1.567 8.963,-4.76 25.83,-9.58c18.16,-5.273 27.95,-8.357 29.37,-9.25c1.647,-0.673 3.128,-1.697 4.34,-3c1.382,-1.46 3.22,-2.408 5.21,-2.69c2.6,-0.22 6.023,1.403 10.27,4.87c4.713,3.933 7.07,8.023 7.07,12.27c-0.047,1.756 -0.543,3.47 -1.44,4.98Z" style="fill:#fff;fill-rule:nonzero;"/><path d="M155.35,93.93c0,7.06 -3.833,15.06 -11.5,24c-1.54,1.68 -9.207,9.347 -23,23c-2.247,4 -4.49,7.977 -6.73,11.93c-2.953,3.813 -6.49,5.48 -10.61,5c-8,-0.887 -14.723,-4.863 -20.17,-11.93c-1.89,-2.35 -2.84,-4.54 -2.84,-6.55c0,-2.24 1.3,-4.38 3.9,-6.39c-1.18,-6.087 -2.313,-22.75 -3.4,-49.99c-0.8,-22.4 -1.2,-37.693 -1.2,-45.88c-2.366,-3.346 -3.664,-7.332 -3.72,-11.43c-0.112,-2.616 0.85,-5.168 2.66,-7.06c1.573,-1.33 3.605,-1.994 5.66,-1.85c5.972,-0.187 11.716,2.35 15.6,6.89c11.44,-4 20.773,-6.017 28,-6.05c8.14,0 13.567,2.467 16.28,7.4c1.782,3.181 2.7,6.774 2.66,10.42c0,11.773 -6.667,24.107 -20,37l16.28,4.7c5.073,1.8 8.377,4.24 9.91,7.32c1.467,2.941 2.228,6.184 2.22,9.47Zm-37.51,-55.47c-2.953,0 -8.38,2.467 -16.28,7.4c0,1.013 0.117,4.29 0.35,9.83c0.233,5.54 0.353,9.207 0.36,11c4.896,-3.998 9.264,-8.602 13,-13.7c3.947,-5.333 5.923,-9.283 5.93,-11.85c0,-1.78 -1.12,-2.673 -3.36,-2.68Zm5.84,53.46c-6.853,0 -13.343,2.463 -19.47,7.39l0.71,25.55c16.873,-12.667 25.307,-22.137 25.3,-28.41c0,-3.02 -2.18,-4.53 -6.54,-4.53Z" style="fill:#fff;fill-rule:nonzero;"/><path d="M224,122.84c0.099,8.482 -3.034,16.691 -8.76,22.95c-5.393,6.346 -13.353,9.955 -21.68,9.83c-17.333,0 -30.07,-7.843 -38.21,-23.53c-8.853,-5.493 -13.277,-10.16 -13.27,-14c0,-1.91 1.23,-3.47 3.71,-4.71c4.84,-2.46 9.263,-3.693 13.27,-3.7c8.727,0 14.567,4.933 17.52,14.8c1.407,2.667 2.88,5.353 4.42,8.06c1.53,2.69 3.6,4 6.19,4c6.96,0 10.44,-4.707 10.44,-14.12c0,-8.413 -1.59,-14.08 -4.77,-17c-1.42,-1.227 -7.087,-3.803 -17,-7.73c-7.943,-3.177 -14.649,-8.84 -19.11,-16.14c-4.204,-6.418 -6.541,-13.881 -6.75,-21.55c-0.302,-11.493 3.042,-22.792 9.55,-32.27c6.84,-10.087 15.333,-15.13 25.48,-15.13c11.793,0 20.403,4.483 25.83,13.45c3.54,5.6 5.54,12.547 6,20.84c1.234,3.747 1.908,7.656 2,11.6c0.064,1.874 -0.228,3.744 -0.86,5.51c-1.767,4.147 -5.247,6.22 -10.44,6.22c-3.905,0.007 -7.681,-1.417 -10.61,-4c-3.54,-2.913 -5.723,-7.003 -6.55,-12.27c-0.335,-1.874 0.078,-3.807 1.15,-5.38c0.674,-0.932 1.237,-1.939 1.68,-3c-0.025,-0.26 -0.15,-0.501 -0.35,-0.67c0.111,-0.553 0.168,-1.116 0.17,-1.68c0,-3.333 -2.063,-4.903 -6.19,-4.71c-4,0.227 -7.127,2.75 -9.38,7.57c-2.064,4.466 -2.976,9.38 -2.65,14.29c0.347,9.52 6.953,17.14 19.82,22.86c10.14,4.48 17.157,8.903 21.05,13.27c5.533,6.247 8.3,15.027 8.3,26.34Z" style="fill:#fff;fill-rule:nonzero;"/><path d="M276,90.19l17.29,0l0,40.55c0.022,3.851 -0.499,7.685 -1.55,11.39c-0.953,3.429 -2.608,6.623 -4.86,9.38c-1.85,2.387 -4.225,4.317 -6.94,5.64c-3.834,1.604 -7.965,2.378 -12.12,2.27c-2.99,-0.019 -5.974,-0.252 -8.93,-0.7c-2.862,-0.335 -5.62,-1.276 -8.09,-2.76c-2.343,-1.551 -4.361,-3.545 -5.94,-5.87c-1.716,-2.356 -2.968,-5.017 -3.69,-7.84c-0.994,-3.759 -1.535,-7.623 -1.61,-11.51l0,-40.55l17.24,0l0,41.52c0,3.71 0.84,6.61 2.54,8.7c1.801,1.98 4.358,3.111 7.035,3.111c2.677,0 5.234,-1.131 7.035,-3.111c1.7,-2 2.54,-5 2.54,-8.74l0.05,-41.48Z" style="fill:#fff;fill-rule:nonzero;"/><path d="M301.69,135.74l16.48,-1.26c0.159,2.609 0.904,5.149 2.18,7.43c1.606,2.664 4.541,4.253 7.65,4.14c2.116,0.133 4.193,-0.638 5.71,-2.12c2.622,-2.636 2.667,-6.941 0.1,-9.63c-1.28,-1.393 -4.237,-2.727 -8.87,-4c-7.6,-2.067 -13.017,-4.82 -16.25,-8.26c-3.312,-3.554 -5.076,-8.285 -4.9,-13.14c-0.004,-3.458 0.859,-6.862 2.51,-9.9c1.711,-3.148 4.337,-5.704 7.53,-7.33c3.333,-1.78 7.927,-2.67 13.78,-2.67c7.167,0 12.63,1.617 16.39,4.85c3.76,3.233 5.997,8.38 6.71,15.44l-16.33,1.16c-0.43,-3.07 -1.34,-5.29 -2.73,-6.69c-1.553,-1.454 -3.636,-2.209 -5.76,-2.09c-1.665,-0.124 -3.311,0.44 -4.55,1.56c-1.003,0.999 -1.556,2.365 -1.53,3.78c0.008,1.106 0.463,2.163 1.26,2.93c0.82,0.9 2.76,1.73 5.82,2.51c7.573,2 12.997,4 16.27,6c3.047,1.788 5.527,4.402 7.15,7.54c1.518,3.141 2.281,6.592 2.23,10.08c0.033,4.212 -0.999,8.364 -3,12.07c-1.869,3.568 -4.773,6.49 -8.33,8.38c-3.573,1.913 -8.073,2.867 -13.5,2.86c-9.54,0 -16.143,-2.23 -19.81,-6.69c-3.667,-4.46 -5.737,-10.11 -6.21,-16.95Z" style="fill:#fff;fill-rule:nonzero;"/><path d="M395.73,147l-19.67,0l-2.73,11.24l-17.69,0l21.07,-68.07l18.9,0l21.06,68.07l-18.14,0l-2.8,-11.24Zm-3.6,-14.72l-6.13,-24.45l-6.13,24.47l12.26,-0.02Z" style="fill:#fff;fill-rule:nonzero;"/><rect x="240.08" y="16.45" width="14" height="53.55" style="fill:#fff;fill-rule:nonzero;"/><path d="M264.17,16.45l13,0l17,29.64l0,-29.64l13.15,0l0,53.55l-13.1,0l-16.92,-29.39l0,29.39l-13.13,0l0,-53.55Z" style="fill:#fff;fill-rule:nonzero;"/><path d="M314.89,43.27c0,-8.74 2.053,-15.55 6.16,-20.43c4.107,-4.88 9.827,-7.313 17.16,-7.3c7.52,0 13.313,2.393 17.38,7.18c4.067,4.787 6.1,11.49 6.1,20.11c0,6.273 -0.887,11.41 -2.66,15.41c-1.608,3.796 -4.283,7.044 -7.7,9.35c-3.759,2.342 -8.134,3.509 -12.56,3.35c-5.087,0 -9.303,-0.963 -12.65,-2.89c-3.559,-2.167 -6.388,-5.351 -8.12,-9.14c-2.067,-4.16 -3.103,-9.373 -3.11,-15.64Zm14,0.08c0,5.4 0.847,9.283 2.54,11.65c1.621,2.227 4.215,3.547 6.969,3.547c2.72,0 5.285,-1.287 6.911,-3.467c1.64,-2.32 2.463,-6.473 2.47,-12.46c0,-5.047 -0.86,-8.733 -2.58,-11.06c-1.591,-2.271 -4.229,-3.586 -7,-3.49c-2.712,-0.052 -5.271,1.289 -6.77,3.55c-1.72,2.36 -2.58,6.27 -2.58,11.73l0.04,0Z" style="fill:#fff;fill-rule:nonzero;"/><path d="M362.87,16.45l15.37,0l8,16.48l7.76,-16.48l15.22,0l-14.06,26l15.4,27.55l-15.68,0l-8.88,-17.19l-9,17.19l-15.55,0l15.55,-27.9l-14.13,-25.65Z" style="fill:#fff;fill-rule:nonzero;"/><path d="M437.07,9.53c0.003,3.117 -1.667,6.007 -4.37,7.56c-4.146,2.386 -9.52,0.948 -11.92,-3.19c-1.558,-2.698 -1.558,-6.032 0,-8.73c0.772,-1.324 1.884,-2.419 3.22,-3.17c2.697,-1.546 6.023,-1.546 8.72,0c1.33,0.765 2.435,1.87 3.2,3.2c0.761,1.316 1.158,2.81 1.15,4.33Zm-1.69,0c0.033,-1.881 -0.718,-3.693 -2.07,-5c-1.316,-1.343 -3.119,-2.101 -5,-2.101c-1.881,0 -3.684,0.758 -5,2.101c-1.346,1.311 -2.092,3.122 -2.06,5c-0.032,1.878 0.714,3.689 2.06,5c1.316,1.343 3.119,2.101 5,2.101c1.881,0 3.684,-0.758 5,-2.101c1.352,-1.307 2.103,-3.119 2.07,-5Zm-11,-4.67l4.17,0c0.915,-0.08 1.83,0.176 2.57,0.72c0.533,0.488 0.823,1.188 0.79,1.91c0.011,0.599 -0.204,1.181 -0.6,1.63c-0.518,0.522 -1.186,0.871 -1.91,1c0.284,0.1 0.548,0.249 0.78,0.44c0.294,0.279 0.547,0.599 0.75,0.95c0.203,0.351 0.52,0.93 1.51,2.7l-2.75,0c-0.505,-1.119 -1.104,-2.192 -1.79,-3.21c-0.216,-0.3 -0.552,-0.49 -0.92,-0.52l-0.28,0l0,3.72l-2.32,0l0,-9.34Zm2.32,4l1,0c0.495,0.044 0.992,-0.068 1.42,-0.32c0.27,-0.197 0.424,-0.516 0.41,-0.85c0.007,-0.325 -0.137,-0.636 -0.39,-0.84c-0.404,-0.249 -0.877,-0.361 -1.35,-0.32l-1.09,0l0,2.33Z" style="fill:#fff;fill-rule:nonzero;"/><path d="M176.9,206.23l0,-24.23l4.89,0l0,24.22l-4.89,0.01Z" style="fill:#fff;fill-rule:nonzero;"/><path d="M186.49,206.23l0,-24.23l4.76,0l9.91,16.17l0,-16.17l4.54,0l0,24.22l-4.9,0l-9.8,-15.78l0,15.79l-4.51,0Z" style="fill:#fff;fill-rule:nonzero;"/><path d="M209.63,198.35l4.76,-0.47c0.157,1.338 0.772,2.582 1.74,3.52c1.007,0.794 2.269,1.196 3.55,1.13c1.263,0.089 2.519,-0.264 3.55,-1c0.738,-0.553 1.181,-1.418 1.2,-2.34c0.012,-0.531 -0.165,-1.048 -0.5,-1.46c-0.493,-0.476 -1.099,-0.82 -1.76,-1c-0.57,-0.2 -1.88,-0.55 -3.92,-1.06c-1.994,-0.368 -3.878,-1.186 -5.51,-2.39c-1.431,-1.213 -2.25,-3.004 -2.23,-4.88c0.001,-1.232 0.366,-2.436 1.05,-3.46c0.73,-1.1 1.776,-1.955 3,-2.45c1.514,-0.596 3.133,-0.882 4.76,-0.84c3.04,0 5.33,0.667 6.87,2c1.537,1.344 2.42,3.289 2.42,5.33l-4.89,0.22c-0.098,-1.033 -0.58,-1.993 -1.35,-2.69c-0.914,-0.601 -1.999,-0.885 -3.09,-0.81c-1.177,-0.069 -2.346,0.236 -3.34,0.87c-0.497,0.335 -0.791,0.901 -0.78,1.5c0.002,0.576 0.272,1.12 0.73,1.47c1.381,0.818 2.905,1.367 4.49,1.62c1.823,0.373 3.595,0.96 5.28,1.75c1.099,0.563 2.025,1.414 2.68,2.46c0.688,1.164 1.034,2.498 1,3.85c0.004,1.386 -0.399,2.742 -1.16,3.9c-0.781,1.219 -1.925,2.164 -3.27,2.7c-1.677,0.64 -3.465,0.943 -5.26,0.89c-3.067,0 -5.42,-0.71 -7.06,-2.13c-1.756,-1.614 -2.818,-3.849 -2.96,-6.23Z" style="fill:#fff;fill-rule:nonzero;"/><path d="M238.88,206.23l0,-20.12l-7.18,0l0,-4.11l19.24,0l0,4.1l-7.17,0l0,20.12l-4.89,0.01Z" style="fill:#fff;fill-rule:nonzero;"/><path d="M254.11,206.23l0,-24.23l10.29,0c1.903,-0.09 3.809,0.133 5.64,0.66c1.177,0.43 2.172,1.248 2.82,2.32c0.712,1.142 1.08,2.465 1.06,3.81c0.059,1.65 -0.517,3.262 -1.61,4.5c-1.28,1.291 -2.979,2.086 -4.79,2.24c0.965,0.536 1.848,1.21 2.62,2c1.041,1.225 1.971,2.54 2.78,3.93l3,4.73l-5.92,0l-3.5,-5.19c-0.78,-1.243 -1.641,-2.432 -2.58,-3.56c-0.402,-0.448 -0.906,-0.791 -1.47,-1c-0.801,-0.215 -1.631,-0.307 -2.46,-0.27l-1,0l0,10.11l-4.88,-0.05Zm4.89,-14l3.62,0c1.464,0.09 2.933,0.013 4.38,-0.23c0.554,-0.173 1.036,-0.525 1.37,-1c0.349,-0.541 0.523,-1.177 0.5,-1.82c0.04,-0.726 -0.196,-1.441 -0.66,-2c-0.481,-0.525 -1.134,-0.862 -1.84,-0.95c-0.39,-0.05 -1.58,-0.08 -3.56,-0.08l-3.81,0l0,6.08Z" style="fill:#fff;fill-rule:nonzero;"/><path d="M278.49,182l4.89,0l0,13.12c-0.038,1.336 0.022,2.673 0.18,4c0.19,0.951 0.72,1.8 1.49,2.39c0.949,0.646 2.084,0.963 3.23,0.9c1.113,0.082 2.221,-0.217 3.14,-0.85c0.674,-0.51 1.128,-1.257 1.27,-2.09c0.181,-1.362 0.254,-2.736 0.22,-4.11l0,-13.36l4.89,0l0,12.72c0.065,2.061 -0.069,4.124 -0.4,6.16c-0.23,1.106 -0.732,2.137 -1.46,3c-0.776,0.886 -1.753,1.572 -2.85,2c-1.492,0.543 -3.074,0.794 -4.66,0.74c-1.789,0.085 -3.577,-0.187 -5.26,-0.8c-1.092,-0.463 -2.062,-1.176 -2.83,-2.08c-0.654,-0.782 -1.122,-1.701 -1.37,-2.69c-0.376,-2.024 -0.537,-4.082 -0.48,-6.14l0,-12.91Z" style="fill:#fff;fill-rule:nonzero;"/><path d="M302.88,206.23l0,-24.23l7.32,0l4.4,16.52l4.34,-16.52l7.33,0l0,24.22l-4.54,0l0,-19.05l-4.81,19.06l-4.7,0l-4.79,-19.06l0,19.06l-4.55,0Z" style="fill:#fff;fill-rule:nonzero;"/><path d="M331.13,206.23l0,-24.23l17.95,0l0,4.1l-13.08,0l0,5.37l12.15,0l0,4.08l-12.15,0l0,6.59l13.52,0l0,4.08l-18.39,0.01Z" style="fill:#fff;fill-rule:nonzero;"/><path d="M353.74,206.23l0,-24.23l4.76,0l9.91,16.17l0,-16.17l4.59,0l0,24.22l-5,0l-9.76,-15.79l0,15.79l-4.5,0.01Z" style="fill:#fff;fill-rule:nonzero;"/><path d="M383.57,206.23l0,-20.12l-7.19,0l0,-4.11l19.24,0l0,4.1l-7.16,0l0,20.12l-4.89,0.01Z" style="fill:#fff;fill-rule:nonzero;"/><path d="M397.54,198.35l4.76,-0.47c0.137,1.336 0.739,2.582 1.7,3.52c1.003,0.795 2.262,1.197 3.54,1.13c1.266,0.089 2.525,-0.264 3.56,-1c0.738,-0.553 1.181,-1.418 1.2,-2.34c0.012,-0.531 -0.165,-1.048 -0.5,-1.46c-0.495,-0.474 -1.1,-0.817 -1.76,-1c-0.58,-0.2 -1.88,-0.55 -3.92,-1.06c-1.995,-0.366 -3.88,-1.184 -5.51,-2.39c-2.425,-2.076 -2.938,-5.669 -1.19,-8.34c0.731,-1.099 1.777,-1.953 3,-2.45c1.514,-0.597 3.133,-0.883 4.76,-0.84c3.04,0 5.33,0.667 6.87,2c1.542,1.339 2.423,3.288 2.41,5.33l-4.88,0.22c-0.098,-1.033 -0.58,-1.993 -1.35,-2.69c-0.916,-0.603 -2.006,-0.887 -3.1,-0.81c-1.174,-0.068 -2.34,0.236 -3.33,0.87c-0.497,0.335 -0.791,0.901 -0.78,1.5c-0.002,0.577 0.269,1.123 0.73,1.47c1.38,0.82 2.904,1.369 4.49,1.62c1.823,0.373 3.595,0.96 5.28,1.75c1.098,0.561 2.021,1.412 2.67,2.46c1.358,2.42 1.285,5.399 -0.19,7.75c-0.781,1.219 -1.925,2.164 -3.27,2.7c-1.681,0.641 -3.472,0.943 -5.27,0.89c-3.06,0 -5.393,-0.71 -7,-2.13c-1.741,-1.621 -2.788,-3.855 -2.92,-6.23Z" style="fill:#fff;fill-rule:nonzero;"/></svg>